<mxfile host="app.diagrams.net" modified="2023-06-05T21:41:33.405Z" agent="Mozilla/5.0 (X11; Linux x86_64; rv:109.0) Gecko/20100101 Firefox/113.0" version="21.3.7" etag="8DwVrZJbfp6aFrDNHGCZ" type="github">
  <diagram name="Page-1" id="396lU19rzyn8n7-BsH0-">
    <mxGraphModel>
      <root>
        <mxCell id="0" />
        <mxCell id="1" parent="0" />
      </root>
    </mxGraphModel>
  </diagram>
</mxfile>
